<svg width="126" height="33" viewBox="0 0 126 33" fill="none" xmlns="http://www.w3.org/2000/svg">
<path d="M23.5865 18.0336L23.5867 18.0338L23.5957 18.0246C28.7098 12.796 35.5971 12.3805 37.4901 12.3716C37.5987 12.3711 37.7013 12.4561 37.7 12.6102L37.7 12.6104C37.685 14.5168 37.233 21.2074 31.9382 26.1848L31.938 26.1847L31.9293 26.1935C26.5348 31.7028 21.2113 31.7008 19.0753 31.7C19.0497 31.7 19.0246 31.7 19 31.7C18.9756 31.7 18.9508 31.7 18.9255 31.7C16.7899 31.7008 11.4646 31.7028 6.07073 26.1936L6.07092 26.1934L6.06185 26.1848C0.76764 21.2081 0.314987 14.5168 0.300014 12.6104L0.300012 12.6102C0.298683 12.4561 0.401267 12.3711 0.50988 12.3716H0.509899C2.40292 12.3805 9.29016 12.796 14.4043 18.0246L14.4041 18.0248L14.4135 18.0336C16.5591 20.0469 17.8723 22.3361 18.7209 24.4888L19 25.1967L19.2791 24.4888C20.1278 22.3361 21.4409 20.0469 23.5865 18.0336ZM19.299 1.40727L19.2991 1.40737C22.1712 4.02894 24.449 8.21257 25.5427 12.9586C24.2241 13.7708 22.9185 14.7669 21.6974 16.0145C20.6995 16.9508 19.7959 18.0117 18.9985 19.1829C18.1939 18.0033 17.2681 16.9189 16.2374 15.9496C15.0405 14.7266 13.7586 13.7479 12.4607 12.9483C13.5563 8.20651 15.8339 4.02705 18.7047 1.40752C18.8621 1.26403 19.1426 1.26437 19.299 1.40727Z" fill="#F0483E" stroke="#E5E5E5" stroke-width="0.6"/>
<path d="M43.632 25V8.2H46.704L54.6 20.032V8.2H57.672V25H54.6L46.704 13.192V25H43.632ZM66.5689 25.288C65.4169 25.288 64.3769 25.024 63.4489 24.496C62.5369 23.968 61.8089 23.24 61.2649 22.312C60.7369 21.368 60.4729 20.28 60.4729 19.048C60.4729 17.816 60.7449 16.736 61.2889 15.808C61.8329 14.864 62.5609 14.128 63.4729 13.6C64.4009 13.072 65.4409 12.808 66.5929 12.808C67.7289 12.808 68.7529 13.072 69.6649 13.6C70.5929 14.128 71.3209 14.864 71.8489 15.808C72.3929 16.736 72.6649 17.816 72.6649 19.048C72.6649 20.28 72.3929 21.368 71.8489 22.312C71.3209 23.24 70.5929 23.968 69.6649 24.496C68.7369 25.024 67.7049 25.288 66.5689 25.288ZM66.5689 22.624C67.3689 22.624 68.0649 22.328 68.6569 21.736C69.2489 21.128 69.5449 20.232 69.5449 19.048C69.5449 17.864 69.2489 16.976 68.6569 16.384C68.0649 15.776 67.3769 15.472 66.5929 15.472C65.7769 15.472 65.0729 15.776 64.4809 16.384C63.9049 16.976 63.6169 17.864 63.6169 19.048C63.6169 20.232 63.9049 21.128 64.4809 21.736C65.0729 22.328 65.7689 22.624 66.5689 22.624ZM75.4116 25V13.096H78.1476L78.4356 15.328C78.8676 14.56 79.4516 13.952 80.1876 13.504C80.9396 13.04 81.8196 12.808 82.8276 12.808V16.048H81.9636C81.2916 16.048 80.6916 16.152 80.1636 16.36C79.6356 16.568 79.2196 16.928 78.9156 17.44C78.6276 17.952 78.4836 18.664 78.4836 19.576V25H75.4116ZM90.1883 25.288C89.0683 25.288 88.0683 25.016 87.1883 24.472C86.3083 23.928 85.6123 23.184 85.1003 22.24C84.5883 21.296 84.3323 20.224 84.3323 19.024C84.3323 17.824 84.5883 16.76 85.1003 15.832C85.6123 14.888 86.3083 14.152 87.1883 13.624C88.0683 13.08 89.0683 12.808 90.1883 12.808C91.0843 12.808 91.8683 12.976 92.5403 13.312C93.2123 13.648 93.7563 14.12 94.1723 14.728V7.72H97.2443V25H94.5083L94.1723 23.296C93.7883 23.824 93.2763 24.288 92.6363 24.688C92.0123 25.088 91.1963 25.288 90.1883 25.288ZM90.8363 22.6C91.8283 22.6 92.6363 22.272 93.2603 21.616C93.9003 20.944 94.2203 20.088 94.2203 19.048C94.2203 18.008 93.9003 17.16 93.2603 16.504C92.6363 15.832 91.8283 15.496 90.8363 15.496C89.8603 15.496 89.0523 15.824 88.4123 16.48C87.7723 17.136 87.4523 17.984 87.4523 19.024C87.4523 20.064 87.7723 20.92 88.4123 21.592C89.0523 22.264 89.8603 22.6 90.8363 22.6ZM106.157 25.288C104.957 25.288 103.893 25.032 102.965 24.52C102.037 24.008 101.309 23.288 100.781 22.36C100.253 21.432 99.9885 20.36 99.9885 19.144C99.9885 17.912 100.245 16.816 100.757 15.856C101.285 14.896 102.005 14.152 102.917 13.624C103.845 13.08 104.933 12.808 106.181 12.808C107.349 12.808 108.381 13.064 109.277 13.576C110.173 14.088 110.869 14.792 111.365 15.688C111.877 16.568 112.133 17.552 112.133 18.64C112.133 18.816 112.125 19 112.109 19.192C112.109 19.384 112.101 19.584 112.085 19.792H103.037C103.101 20.72 103.421 21.448 103.997 21.976C104.589 22.504 105.301 22.768 106.133 22.768C106.757 22.768 107.277 22.632 107.693 22.36C108.125 22.072 108.445 21.704 108.653 21.256H111.773C111.549 22.008 111.173 22.696 110.645 23.32C110.133 23.928 109.493 24.408 108.725 24.76C107.973 25.112 107.117 25.288 106.157 25.288ZM106.181 15.304C105.429 15.304 104.765 15.52 104.189 15.952C103.613 16.368 103.245 17.008 103.085 17.872H109.013C108.965 17.088 108.677 16.464 108.149 16C107.621 15.536 106.965 15.304 106.181 15.304ZM117.464 25L113.096 13.096H116.312L119.336 22.096L122.36 13.096H125.576L121.184 25H117.464Z" fill="#819299"/>
</svg>
