<svg width="126" height="33" viewBox="0 0 126 33" fill="none" xmlns="http://www.w3.org/2000/svg">
<g clip-path="url(#clip0_413_11)">
<path d="M24.3582 18.489L24.3584 18.4892L24.3673 18.4799C29.2079 13.4246 35.7262 13.0231 37.517 13.0145C37.6044 13.0141 37.7013 13.0851 37.7 13.2356L37.7 13.2358C37.6858 15.0813 37.2572 21.5537 32.2441 26.3676L32.2439 26.3674L32.2353 26.3764C27.1296 31.7028 22.0933 31.7008 20.072 31.7C20.0475 31.7 20.0235 31.7 20 31.7C19.9767 31.7 19.9529 31.7 19.9287 31.7C17.9078 31.7008 12.8697 31.7028 7.76472 26.3764L7.76491 26.3762L7.75593 26.3676C2.74343 21.5543 2.3142 15.0812 2.30001 13.2358L2.30001 13.2356C2.29874 13.0851 2.39556 13.0141 2.48294 13.0145H2.48296C4.27385 13.0231 10.7921 13.4246 15.6327 18.4799L15.6325 18.4801L15.6418 18.489C17.6728 20.4358 18.9163 22.6499 19.7201 24.7326L20 25.4578L20.2799 24.7326C21.0837 22.6499 22.3272 20.4358 24.3582 18.489ZM20.2703 2.39912L20.2704 2.39922C22.9884 4.93345 25.1454 8.97883 26.1818 13.5698C24.9336 14.3558 23.6979 15.3192 22.5422 16.5255C21.6023 17.4263 20.7507 18.4462 19.9986 19.5714C19.2394 18.4378 18.3669 17.3953 17.3961 16.4627C16.2633 15.2803 15.05 14.3336 13.8215 13.5598C14.8596 8.9729 17.0166 4.9315 19.7333 2.39925C19.8758 2.26675 20.1289 2.26713 20.2703 2.39912Z" fill="#F0483E" stroke="#E5E5E5" stroke-width="0.6"/>
<path d="M43.496 27V11.6H46.312L53.55 22.446V11.6H56.366V27H53.55L46.312 16.176V27H43.496ZM64.5215 27.264C63.4655 27.264 62.5121 27.022 61.6615 26.538C60.8255 26.054 60.1581 25.3867 59.6595 24.536C59.1755 23.6707 58.9335 22.6733 58.9335 21.544C58.9335 20.4147 59.1828 19.4247 59.6815 18.574C60.1801 17.7087 60.8475 17.034 61.6835 16.55C62.5341 16.066 63.4875 15.824 64.5435 15.824C65.5848 15.824 66.5235 16.066 67.3595 16.55C68.2101 17.034 68.8775 17.7087 69.3615 18.574C69.8601 19.4247 70.1095 20.4147 70.1095 21.544C70.1095 22.6733 69.8601 23.6707 69.3615 24.536C68.8775 25.3867 68.2101 26.054 67.3595 26.538C66.5088 27.022 65.5628 27.264 64.5215 27.264ZM64.5215 24.822C65.2548 24.822 65.8928 24.5507 66.4355 24.008C66.9781 23.4507 67.2495 22.6293 67.2495 21.544C67.2495 20.4587 66.9781 19.6447 66.4355 19.102C65.8928 18.5447 65.2621 18.266 64.5435 18.266C63.7955 18.266 63.1501 18.5447 62.6075 19.102C62.0795 19.6447 61.8155 20.4587 61.8155 21.544C61.8155 22.6293 62.0795 23.4507 62.6075 24.008C63.1501 24.5507 63.7881 24.822 64.5215 24.822ZM72.6273 27V16.088H75.1353L75.3993 18.134C75.7953 17.43 76.3306 16.8727 77.0053 16.462C77.6946 16.0367 78.5013 15.824 79.4253 15.824V18.794H78.6333C78.0173 18.794 77.4673 18.8893 76.9833 19.08C76.4993 19.2707 76.1179 19.6007 75.8393 20.07C75.5753 20.5393 75.4433 21.192 75.4433 22.028V27H72.6273ZM86.1726 27.264C85.1459 27.264 84.2292 27.0147 83.4226 26.516C82.6159 26.0173 81.9779 25.3353 81.5086 24.47C81.0392 23.6047 80.8046 22.622 80.8046 21.522C80.8046 20.422 81.0392 19.4467 81.5086 18.596C81.9779 17.7307 82.6159 17.056 83.4226 16.572C84.2292 16.0733 85.1459 15.824 86.1726 15.824C86.9939 15.824 87.7126 15.978 88.3286 16.286C88.9446 16.594 89.4432 17.0267 89.8246 17.584V11.16H92.6406V27H90.1326L89.8246 25.438C89.4726 25.922 89.0032 26.3473 88.4166 26.714C87.8446 27.0807 87.0966 27.264 86.1726 27.264ZM86.7666 24.8C87.6759 24.8 88.4166 24.4993 88.9886 23.898C89.5752 23.282 89.8686 22.4973 89.8686 21.544C89.8686 20.5907 89.5752 19.8133 88.9886 19.212C88.4166 18.596 87.6759 18.288 86.7666 18.288C85.8719 18.288 85.1312 18.5887 84.5446 19.19C83.9579 19.7913 83.6646 20.5687 83.6646 21.522C83.6646 22.4753 83.9579 23.26 84.5446 23.876C85.1312 24.492 85.8719 24.8 86.7666 24.8ZM100.81 27.264C99.7101 27.264 98.7348 27.0293 97.8841 26.56C97.0335 26.0907 96.3661 25.4307 95.8821 24.58C95.3981 23.7293 95.1561 22.7467 95.1561 21.632C95.1561 20.5027 95.3908 19.498 95.8601 18.618C96.3441 17.738 97.0041 17.056 97.8401 16.572C98.6908 16.0733 99.6881 15.824 100.832 15.824C101.903 15.824 102.849 16.0587 103.67 16.528C104.491 16.9973 105.129 17.6427 105.584 18.464C106.053 19.2707 106.288 20.1727 106.288 21.17C106.288 21.3313 106.281 21.5 106.266 21.676C106.266 21.852 106.259 22.0353 106.244 22.226H97.9501C98.0088 23.0767 98.3021 23.744 98.8301 24.228C99.3728 24.712 100.025 24.954 100.788 24.954C101.36 24.954 101.837 24.8293 102.218 24.58C102.614 24.316 102.907 23.9787 103.098 23.568H105.958C105.753 24.2573 105.408 24.888 104.924 25.46C104.455 26.0173 103.868 26.4573 103.164 26.78C102.475 27.1027 101.69 27.264 100.81 27.264ZM100.832 18.112C100.143 18.112 99.5341 18.31 99.0061 18.706C98.4781 19.0873 98.1408 19.674 97.9941 20.466H103.428C103.384 19.7473 103.12 19.1753 102.636 18.75C102.152 18.3247 101.551 18.112 100.832 18.112ZM111.175 27L107.171 16.088H110.119L112.891 24.338L115.663 16.088H118.611L114.585 27H111.175Z" fill="#819299"/>
</g>
<defs>
<clipPath id="clip0_413_11">
<rect width="126" height="32.005" fill="white"/>
</clipPath>
</defs>
</svg>
